<svg width="182" height="182" viewBox="0 0 182 182" fill="none" xmlns="http://www.w3.org/2000/svg">
<path d="M91 182C141.258 182 182 141.258 182 90.9998C182 86.6804 181.699 82.4314 181.117 78.2725C175.143 94.8179 155.591 115.5 149.545 109.136C143.5 102.773 163.545 88.7725 160.045 84.3179C156.545 79.8634 148.591 88.7725 143.5 88.7725C138.409 88.7725 138.727 80.4997 129.182 80.4997C116.455 80.4997 103.091 119.636 75.0909 119.636C51.5455 119.636 20.6818 100.545 0 90.9998C0 141.258 40.7421 182 91 182Z" fill="white"/>
<path d="M178.484 65.8638C167.576 27.8313 132.538 0 90.9998 0C46.3921 0 9.28085 32.0963 1.50024 74.4547C1.50024 74.4547 41.0452 93.5456 48.6816 96.7275C56.3179 99.9093 66.8179 103.409 73.8179 103.409C82.0907 103.409 90.9998 98.0002 104.045 80.182C117.091 62.3638 119.318 58.5456 128.863 58.5456C134.909 58.5456 146.363 73.182 153.045 72.5456C159.727 71.9092 165.454 63.6365 170.227 63.6365C174.045 63.6365 177.322 65.1213 178.484 65.8638Z" fill="#01FD6B"/>
</svg>
