<svg width="500" height="96" viewBox="0 0 500 96" fill="none" xmlns="http://www.w3.org/2000/svg">
<path d="M47.9194 95.8388C74.3846 95.8388 95.8389 74.3845 95.8389 47.9193C95.8389 45.6448 95.6804 43.4073 95.3739 41.2173C92.2281 49.9299 81.9322 60.8207 78.7487 57.4697C75.5653 54.1187 86.1209 46.7465 84.2779 44.4007C82.4348 42.055 78.2461 46.7465 75.5653 46.7465C72.8844 46.7465 73.052 42.3901 68.0255 42.3901C61.3235 42.3901 54.2863 62.9989 39.5419 62.9989C27.1432 62.9989 10.8908 52.9458 0 47.9193C0 74.3845 21.4543 95.8388 47.9194 95.8388Z" fill="white"/>
<path d="M93.9873 34.683C88.2434 14.6556 69.7929 0 47.9193 0C24.4295 0 4.88721 16.9015 0.790039 39.2069C0.790039 39.2069 21.6139 49.2599 25.6351 50.9354C29.6563 52.6109 35.1855 54.454 38.8716 54.454C43.2279 54.454 47.9193 51.6056 54.7889 42.2228C61.6585 32.8399 62.8313 30.8293 67.8578 30.8293C71.0413 30.8293 77.0731 38.5367 80.5917 38.2016C84.1102 37.8665 87.1261 33.5102 89.6394 33.5102C91.65 33.5102 93.3757 34.2921 93.9873 34.683Z" fill="#01FD6B"/>
<path d="M245.492 68.36V28.436H275.745V37.3631H257.147V43.8725H273.451V52.9236H257.147V59.4329H275.745V68.36H245.492Z" fill="white"/>
<path d="M197.483 68.36V28.436H208.828L218.747 48.708L228.604 28.436H239.887V68.36H228.232V48.398L221.847 61.5407H215.585L209.138 48.398V68.36H197.483Z" fill="white"/>
<path d="M163.52 68.36V28.436H193.773V37.3631H175.175V43.8725H191.479V52.9236H175.175V59.4329H193.773V68.36H163.52Z" fill="white"/>
<path d="M115.511 68.3608V28.4368H126.856L136.775 48.7087L146.632 28.4368H157.915V68.3608H146.26V48.3988L139.875 61.5415H133.613L127.166 48.3988V68.3608H115.511Z" fill="white"/>
<path d="M469.747 68.36V28.436H500V37.3631H481.402V43.8725H497.706V52.9236H481.402V59.4329H500V68.36H469.747Z" fill="#01FD6B"/>
<path d="M449.948 68.9798C442.84 68.9798 437.425 67.244 433.706 63.7723C429.986 60.2593 428.126 55.2585 428.126 48.7698C428.126 42.0745 430.048 36.9083 433.892 33.2714C437.735 29.6344 443.356 27.8159 450.754 27.8159C453.234 27.8159 455.466 27.9606 457.449 28.2499C459.474 28.5392 461.376 28.9731 463.153 29.5517V39.5327C461.334 38.8301 459.454 38.3549 457.511 38.1069C455.569 37.8589 453.585 37.7349 451.56 37.7349C447.716 37.7349 444.823 38.6028 442.881 40.3387C440.98 42.0745 440.029 44.8849 440.029 48.7698C440.029 52.4068 440.856 55.0312 442.509 56.643C444.203 58.2549 446.683 59.0608 449.948 59.0608C451.023 59.0608 452.035 58.9988 452.986 58.8748C453.936 58.7095 454.825 58.5028 455.652 58.2549V52.4275H447.716V45.2362H465.385V65.3222C463.855 66.2727 461.81 67.12 459.247 67.8639C456.726 68.6078 453.626 68.9798 449.948 68.9798Z" fill="#01FD6B"/>
<path d="M387.775 68.36V28.436H405.629C409.721 28.436 413.213 29.118 416.106 30.4818C418.999 31.8044 421.21 33.9535 422.739 36.9292C424.269 39.8636 425.033 43.7692 425.033 48.646C425.033 55.5067 423.359 60.5075 420.012 63.6485C416.664 66.7895 411.87 68.36 405.629 68.36H387.775ZM399.43 59.4329H404.141C406.084 59.4329 407.716 59.1643 409.039 58.627C410.361 58.0484 411.374 56.9945 412.077 55.4653C412.779 53.8948 413.13 51.6217 413.13 48.646C413.13 45.6703 412.8 43.3765 412.139 41.7647C411.519 40.1115 410.547 38.975 409.225 38.355C407.902 37.6938 406.208 37.3631 404.141 37.3631H399.43V59.4329Z" fill="#01FD6B"/>
<path d="M370.521 68.36V28.436H382.176V68.36H370.521Z" fill="#01FD6B"/>
<path d="M331.169 68.36V28.436H351.937C355.202 28.436 357.868 29.0353 359.934 30.2339C362.042 31.4324 363.613 33.1062 364.646 35.2554C365.679 37.3631 366.196 39.8222 366.196 42.6326C366.196 45.319 365.514 47.6954 364.15 49.7619C362.828 51.787 361.05 53.3369 358.819 54.4114C359.273 54.7834 359.666 55.238 359.996 55.7753C360.327 56.2712 360.699 56.9738 361.112 57.8831L365.7 68.36H353.549L349.334 58.751C349.003 58.0071 348.59 57.4905 348.094 57.2012C347.639 56.8705 346.978 56.7052 346.11 56.7052H342.824V68.36H331.169ZM342.824 47.7781H348.962C350.656 47.7781 351.958 47.3441 352.867 46.4762C353.818 45.567 354.293 44.2858 354.293 42.6326C354.293 39.1196 352.64 37.3631 349.334 37.3631H342.824V47.7781Z" fill="#01FD6B"/>
<path d="M291.031 68.36V28.436H312.977C317.027 28.436 320.106 29.3866 322.214 31.2877C324.322 33.1889 325.375 35.9166 325.375 39.4709C325.375 41.5374 324.983 43.2732 324.198 44.6784C323.454 46.0836 322.462 47.1995 321.222 48.0261C322.916 48.6873 324.26 49.6586 325.252 50.9398C326.285 52.1797 326.801 54.0395 326.801 56.5192C326.801 60.2802 325.644 63.1939 323.33 65.2603C321.015 67.3268 317.73 68.36 313.473 68.36H291.031ZM302.252 44.3684H309.815C312.667 44.3684 314.093 43.0872 314.093 40.5248C314.093 39.2436 313.741 38.2724 313.039 37.6111C312.377 36.9499 311.2 36.6192 309.505 36.6192H302.252V44.3684ZM302.252 60.2388H310.311C311.882 60.2388 313.039 59.9082 313.783 59.2469C314.527 58.5857 314.899 57.4905 314.899 55.9613C314.899 54.6801 314.527 53.7088 313.783 53.0476C313.039 52.3863 311.799 52.0557 310.063 52.0557H302.252V60.2388Z" fill="#01FD6B"/>
</svg>
